<svg width="100%" height="100%" viewBox="0 0 32 32" fill="none" xmlns="http://www.w3.org/2000/svg">
<g opacity="0.5">
<path d="M21.3258 3.99805C20.6188 3.99805 19.9408 4.27889 19.4409 4.7788C18.941 5.27871 18.6602 5.95673 18.6602 6.6637V14.6607C18.6602 15.3676 18.941 16.0457 19.4409 16.5456C19.9408 17.0455 20.6188 17.3263 21.3258 17.3263C21.6793 17.3263 22.0183 17.4667 22.2683 17.7167C22.5182 17.9667 22.6586 18.3057 22.6586 18.6592V19.992C22.6586 20.699 22.3778 21.377 21.8779 21.8769C21.378 22.3768 20.7 22.6576 19.993 22.6576C19.6395 22.6576 19.3005 22.7981 19.0505 23.048C18.8006 23.298 18.6602 23.637 18.6602 23.9905V26.6561C18.6602 27.0096 18.8006 27.3486 19.0505 27.5986C19.3005 27.8485 19.6395 27.9889 19.993 27.9889C22.1139 27.9889 24.148 27.1464 25.6477 25.6467C27.1474 24.147 27.99 22.1129 27.99 19.992V6.6637C27.99 5.95673 27.7091 5.27871 27.2092 4.7788C26.7093 4.27889 26.0313 3.99805 25.3243 3.99805H21.3258Z" stroke="currentColor" stroke-width="2.66566" stroke-linecap="round" stroke-linejoin="round"/>
<path d="M6.66566 3.99805C5.95868 3.99805 5.28066 4.27889 4.78075 4.7788C4.28084 5.27871 4 5.95673 4 6.6637V14.6607C4 15.3676 4.28084 16.0457 4.78075 16.5456C5.28066 17.0455 5.95868 17.3263 6.66566 17.3263C7.01914 17.3263 7.35815 17.4667 7.60811 17.7167C7.85806 17.9667 7.99848 18.3057 7.99848 18.6592V19.992C7.99848 20.699 7.71764 21.377 7.21773 21.8769C6.71782 22.3768 6.0398 22.6576 5.33283 22.6576C4.97934 22.6576 4.64033 22.7981 4.39038 23.048C4.14042 23.298 4 23.637 4 23.9905V26.6561C4 27.0096 4.14042 27.3486 4.39038 27.5986C4.64033 27.8485 4.97934 27.9889 5.33283 27.9889C7.45376 27.9889 9.48781 27.1464 10.9875 25.6467C12.4873 24.147 13.3298 22.1129 13.3298 19.992V6.6637C13.3298 5.95673 13.0489 5.27871 12.549 4.7788C12.0491 4.27889 11.3711 3.99805 10.6641 3.99805H6.66566Z" stroke="currentColor" stroke-width="2.66566" stroke-linecap="round" stroke-linejoin="round"/>
</g>
</svg>
